# xmcd
#
# Track frame offsets:
#	150
#	13801
#	28309
#	42081
#	56859
#	70163
#	84280
#	98661
#	111092
#	125536
#
# Disc length: 1859 seconds
#
# Revision: 0
# Processed by: cddbd v1.5.2PL0 Copyright (c) Steve Scherf et al.
# Submitted via: dBpowerAMP V4.0
#
DISCID=8107410a
DTITLE=Billie Holliday - Portrait of Billie Holliday Disc two
DYEAR=2005
DGENRE=Blues
TTITLE0=Easy Livin'
TTITLE1=Who Loves You?
TTITLE2=I'll Never Be The Same
TTITLE3=Pennies From Heaven
TTITLE4=Carelessly
TTITLE5=I'll Get By
TTITLE6=Easy To Love
TTITLE7=I Can't Believe That You're In Love With Me
TTITLE8=I Cried For You
TTITLE9=Mean To Me
EXTD=Portrait of Billie Holliday Disc two of two disc set.
EXTT0=
EXTT1=
EXTT2=
EXTT3=
EXTT4=
EXTT5=
EXTT6=
EXTT7=
EXTT8=
EXTT9=
PLAYORDER=
